<?xml version="1.0" encoding="UTF-8"?>
<!--Generator: Apple Native CoreSVG 341-->
<!DOCTYPE svg
PUBLIC "-//W3C//DTD SVG 1.1//EN"
       "http://www.w3.org/Graphics/SVG/1.1/DTD/svg11.dtd">
<svg version="1.1" xmlns="http://www.w3.org/2000/svg" xmlns:xlink="http://www.w3.org/1999/xlink" viewBox="0 0 325.625 325.875">
 <g>
  <rect height="325.875" opacity="0" width="325.625" x="0" y="0"/>
  <path d="M162.75 325.625C252.625 325.625 325.625 252.75 325.625 162.875C325.625 73 252.625 0 162.75 0C72.875 0 0 73 0 162.875C0 252.75 72.875 325.625 162.75 325.625ZM162.75 302.375C85.625 302.375 23.25 240 23.25 162.875C23.25 85.75 85.625 23.375 162.75 23.375C239.875 23.375 302.25 85.75 302.25 162.875C302.25 240 239.875 302.375 162.75 302.375ZM272.625 268.375L272.25 266.875C263.625 243.625 221.375 217.125 162.75 217.125C104.375 217.125 62.125 243.5 53.25 266.625L52.875 268.375C81.75 297.25 128.875 314.5 162.875 314.5C196.875 314.5 243.25 297.625 272.625 268.375ZM162.75 189.625C193.75 189.875 217.875 163.375 217.875 128.875C217.875 96.375 193.5 69.375 162.75 69.375C132 69.375 107.5 96.375 107.625 128.875C107.75 163.375 131.75 189.375 162.75 189.625Z" fill="white" fill-opacity="0.85"/>
 </g>
</svg>
