<?xml version="1.0" encoding="UTF-8"?>
<!--Generator: Apple Native CoreSVG 341-->
<!DOCTYPE svg
PUBLIC "-//W3C//DTD SVG 1.1//EN"
       "http://www.w3.org/Graphics/SVG/1.1/DTD/svg11.dtd">
<svg version="1.1" xmlns="http://www.w3.org/2000/svg" xmlns:xlink="http://www.w3.org/1999/xlink" viewBox="0 0 321.5 329.375">
 <g>
  <rect height="329.375" opacity="0" width="321.5" x="0" y="0"/>
  <path d="M321.5 291.25C321.5 297.5 316.5 302.25 310.25 302.25L11.125 302.25C4.75 302.25 0 297.5 0 291.25C0 284.875 4.75 280.125 11.125 280.125L310.25 280.125C316.5 280.125 321.5 284.875 321.5 291.25Z" fill="white" fill-opacity="0.85"/>
  <path d="M321.5 206.75C321.5 213 316.5 217.875 310.25 217.875L11.125 217.875C4.75 217.875 0 213 0 206.75C0 200.5 4.75 195.75 11.125 195.75L310.25 195.75C316.5 195.75 321.5 200.5 321.5 206.75Z" fill="white" fill-opacity="0.85"/>
  <path d="M321.5 122.375C321.5 128.625 316.5 133.5 310.25 133.5L200.125 133.5C193.875 133.5 189.125 128.625 189.125 122.375C189.125 116.125 193.875 111.25 200.125 111.25L310.25 111.25C316.5 111.25 321.5 116.125 321.5 122.375Z" fill="white" fill-opacity="0.85"/>
  <path d="M321.5 38C321.5 44.25 316.5 49 310.25 49L200.125 49C193.875 49 189.125 44.25 189.125 38C189.125 31.75 193.875 26.875 200.125 26.875L310.25 26.875C316.5 26.875 321.5 31.75 321.5 38Z" fill="white" fill-opacity="0.85"/>
  <path d="M161.75 80.875C161.75 125.125 124.875 161.75 80.875 161.75C36.625 161.75 0.125 125.375 0.125 80.875C0.125 36.625 36.625 0 80.875 0C125.25 0 161.75 36.5 161.75 80.875ZM71.875 39L71.875 71.75L39 71.75C33.625 71.75 29.875 75.375 29.875 80.875C29.875 86.375 33.625 90 39 90L71.875 90L71.875 122.875C71.875 128.25 75.375 131.875 80.875 131.875C86.5 131.875 90 128.25 90 122.875L90 90L122.75 90C128.25 90 131.875 86.375 131.875 80.875C131.875 75.375 128.25 71.75 122.75 71.75L90 71.75L90 39C90 33.625 86.5 29.875 80.875 29.875C75.375 29.875 71.875 33.625 71.875 39Z" fill="white" fill-opacity="0.85"/>
 </g>
</svg>
