<?xml version="1.0" encoding="UTF-8"?>
<!--Generator: Apple Native CoreSVG 341-->
<!DOCTYPE svg
PUBLIC "-//W3C//DTD SVG 1.1//EN"
       "http://www.w3.org/Graphics/SVG/1.1/DTD/svg11.dtd">
<svg version="1.1" xmlns="http://www.w3.org/2000/svg" xmlns:xlink="http://www.w3.org/1999/xlink" viewBox="0 0 389.5 377.954">
 <g>
  <rect height="377.954" opacity="0" width="389.5" x="0" y="0"/>
  <path d="M286.749 54.8849L266.234 75.4146L120.313 75.4146C91.9377 75.4146 75.9377 91.4146 75.9377 119.79L75.9377 268.665C75.9377 297.165 91.9377 313.165 120.313 313.165L269.188 313.165C297.563 313.165 313.563 297.165 313.563 268.665L313.563 123.759L334.24 103.052C335.218 108.261 335.688 113.901 335.688 119.915L335.688 268.665C335.688 311.415 311.938 335.29 269.188 335.29L120.313 335.29C77.5627 335.29 53.8127 311.415 53.8127 268.665L53.8127 119.915C53.8127 77.1646 77.5627 53.2896 120.313 53.2896L269.188 53.2896C275.475 53.2896 281.352 53.8061 286.749 54.8849Z" fill="white" fill-opacity="0.85"/>
  <path d="M163.938 229.29L192.938 216.415L343.313 66.0396L323.438 46.2896L173.188 196.665L159.563 224.79C158.313 227.165 161.313 230.415 163.938 229.29ZM354.688 54.9146L365.563 43.6646C370.813 38.2896 370.938 31.4146 365.813 26.2896L362.688 23.1646C357.938 18.4146 350.813 19.0396 345.813 24.0396L334.813 34.9146Z" fill="white" fill-opacity="0.85"/>
 </g>
</svg>
