<?xml version="1.0" encoding="UTF-8"?>
<!-- Generator: Adobe Illustrator 27.1.1, SVG Export Plug-In . SVG Version: 6.00 Build 0)  -->
<svg xmlns="http://www.w3.org/2000/svg" xmlns:xlink="http://www.w3.org/1999/xlink" version="1.1" id="Capa_1" x="0px" y="0px" viewBox="0 0 512 512" style="enable-background:new 0 0 512 512;" xml:space="preserve" width="512" height="512">
<g>
	<g>
		<g>
			<path d="M505.982,311.45c-4.41-16.46-21.4-26.27-37.86-21.86l-36.81,9.86v-21.46c0-6.08-4.93-11-11-11h-53.38     c6.68-9.34,10.07-20.56,9.64-32.28c-0.77-21.14-15.85-38.33-35.92-42.74c2.42-3.71,2.44-8.69-0.32-12.48     c-3.58-4.91-10.46-6-15.37-2.42c-4.84,3.52-8.47,8.38-10.52,13.86c-24,1.02-43.16,19.88-44.03,43.78     c-0.43,11.72,2.96,22.94,9.64,32.28h-178.44c-6.08,0-11,4.92-11,11v21.47l-36.81-9.87c-16.47-4.41-33.45,5.4-37.86,21.86     c-4.42,16.47,5.39,33.46,21.86,37.87l52.81,14.15v93.4c0,30.4,24.73,55.13,55.13,55.13h230.44c30.4,0,55.13-24.73,55.13-55.13     v-93.4l52.81-14.15C500.592,344.91,510.392,327.92,505.982,311.45z M300.872,257.7c-5.77-5.98-8.78-13.86-8.48-22.19     c0.45-12.48,11.27-22.63,24.1-22.63h14c12.83,0,23.64,10.15,24.1,22.63c0.3,8.33-2.71,16.21-8.48,22.19     c-5.77,5.99-13.53,9.29-21.84,9.29h-1.56C314.402,266.99,306.642,263.69,300.872,257.7z M43.492,328.07     c-2.3-0.62-4.22-2.09-5.41-4.15c-1.19-2.07-1.51-4.47-0.89-6.77c0.61-2.3,2.09-4.23,4.15-5.42c2.06-1.19,4.47-1.51,6.77-0.89     l42.5,11.39v18.46L43.492,328.07z M409.312,456.87c0,18.27-14.86,33.13-33.13,33.13h-230.44c-18.27,0-33.13-14.86-33.13-33.13     V288.99h296.7V456.87z M478.432,328.07l-47.12,12.62v-18.47l42.5-11.38c4.74-1.27,9.65,1.56,10.92,6.31     S483.182,326.8,478.432,328.07z"/>
		</g>
	</g>
	<g>
		<g>
			<path style="fill:#33CCCC;" d="M35.633,133.434c-0.534,0-1.069-0.014-1.608-0.042c-15.495-0.795-28.244-13.713-29.024-29.41     c-0.405-8.157,2.285-15.914,7.393-21.88c-1.302-10.109,2.017-20.473,9.288-27.892c7.297-7.444,17.492-10.868,27.474-9.6     c5.896-5.196,13.566-7.922,21.651-7.51C86.3,37.902,99.043,50.827,99.818,66.523c0.238,4.822-0.594,9.498-2.474,13.897     c-2.28,5.335-2.965,11.06-1.982,16.561c1.069,5.98-2.912,11.695-8.893,12.764c-5.989,1.064-11.696-2.914-12.764-8.894     c-1.74-9.735-0.562-19.79,3.409-29.077c0.557-1.302,0.803-2.706,0.73-4.167c-0.226-4.562-3.816-8.311-8.176-8.537     c-3.034-0.162-5.837,1.293-7.557,3.877c-2.869,4.31-8.354,6.034-13.177,4.141c-3.976-1.563-8.51-0.574-11.543,2.521     c-3.143,3.208-4.135,8.042-2.523,12.313c1.78,4.72,0.122,10.046-4.023,12.921c-2.586,1.793-4.033,4.8-3.872,8.044     c0.226,4.561,3.819,8.308,8.179,8.532c1.341,0.064,2.622-0.167,3.821-0.7c8.948-3.983,18.665-5.245,28.09-3.649     c5.99,1.014,10.023,6.692,9.01,12.682c-1.014,5.99-6.688,10.023-12.682,9.01c-5.142-0.87-10.494-0.159-15.475,2.057     C44.014,132.558,39.889,133.434,35.633,133.434z"/>
		</g>
		<g>
			<path d="M194.502,187.79c-9.72-34.85-39.76-93.89-79.02-103.99c-12.1-3.12-30.44-2.85-49.02,16.1     c-24.97,25.49-22.63,56.44,6.44,84.93c15.89,15.57,39.46,30.13,64.67,39.96c15.83,6.16,28.63,9.25,38.33,9.25     c7.62,0,13.32-1.91,17.05-5.72c0.01,0,0.01-0.01,0.02-0.02C197.262,223.92,202.062,214.94,194.502,187.79z M176.382,212.06     c-6.3,0-21.43-3.12-41.18-12.16l1.34-1.37c4.25-4.34,4.18-11.31-0.16-15.56c-4.34-4.25-11.31-4.18-15.56,0.16l-5.95,6.07     c-13.66-8.2-24.86-17.31-32.47-26.43l8.32-8.49c4.25-4.34,4.18-11.3-0.16-15.55c-4.33-4.26-11.3-4.18-15.55,0.15l-3.3,3.36     c-1.61-9.37,1.85-18.14,10.47-26.94c7.25-7.39,14.28-11.05,21.67-11.05c5.07,0,10.31,1.72,15.91,5.12     c2.74,1.66,5.52,3.74,8.31,6.19l-5.98,6.1c-4.25,4.34-4.18,11.31,0.16,15.56c2.14,2.1,4.92,3.14,7.7,3.14     c2.85,0,5.7-1.1,7.85-3.3l5.09-5.19c7.1,9.43,13.87,20.83,19.74,33.44c10.52,22.62,13.97,39.95,13.86,46.75H176.382z"/>
		</g>
	</g>
	<g>
		<g>
			<path style="fill:#33CCCC;" d="M500.162,45.27c-1.83-5.8-8.01-9.01-13.8-7.18c-3.28,1.03-6.53,2.13-9.76,3.29     c-0.39-0.89-0.81-1.77-1.26-2.64c-10.94-21.1-37.14-29.64-58.41-19.04c-4.98,2.48-9.39,5.84-13.05,9.91     c-1.98-0.33-3.98-0.5-5.98-0.5c-5.58,0-11.15,1.3-16.28,3.88c-12.64,6.36-20.12,19.18-19.97,32.71     c-0.89,0.49-1.76,1.01-2.61,1.57c-16.49,10.75-22.72,32.33-14.49,50.18c4.58,9.95,12.79,17.42,23.11,21.03     c9.88,3.46,20.44,2.95,29.89-1.41c6.32,4.81,14.02,7.37,21.86,7.37c5.51,0,11.09-1.27,16.31-3.89     c6.97-3.51,12.51-9.07,15.98-15.86c5.45-0.51,10.78-2.05,15.73-4.56c21.19-10.76,29.96-36.89,19.55-58.25     c-0.11-0.24-0.23-0.47-0.35-0.7c2.11-0.74,4.22-1.44,6.35-2.11C498.772,57.24,501.982,51.06,500.162,45.27z M467.202,71.52     c5.19,10.63,0.82,23.64-9.73,28.99c-3.79,1.93-8.01,2.7-12.21,2.24c-5.57-0.61-10.71,3.06-11.93,8.53     c-0.94,4.19-3.67,7.69-7.5,9.62c-6.2,3.12-13.69,1.33-17.81-4.24c-1.79-2.42-4.49-4-7.471-4.37     c-4.656-0.607-7.768,2.562-11.619,4.52c-4.39,2.2-9.37,2.53-14.01,0.9c-4.64-1.62-8.33-4.98-10.39-9.46     c-3.7-8.02-0.89-17.72,6.53-22.56c4.297-2.803,9.494-2.688,12.28-7.62c2.627-4.649-0.131-9.392,0.403-14.277     c0.52-4.757,3.485-9.005,7.758-11.154c3.83-1.92,8.27-2.03,12.19-0.28c5.12,2.27,11.13,0.34,13.96-4.5     c2.14-3.64,5.28-6.57,9.09-8.47c10.59-5.27,23.63-1.02,29.07,9.48c0.14,0.27,0.27,0.54,0.39,0.81     c-14.08,6.44-27.59,14.12-40.4,22.98c-5,3.45-6.25,10.31-2.79,15.3c2.13,3.09,5.56,4.75,9.05,4.75c2.16,0,4.34-0.64,6.25-1.96     c11.94-8.26,24.55-15.4,37.7-21.35C466.452,70.08,466.842,70.79,467.202,71.52z"/>
		</g>
	</g>
	<g>
		<g>
			<path d="M323.872,54.75c0-30.19-28.22-54.75-62.91-54.75s-62.91,24.56-62.91,54.75c0,19.42,14.6,35.5,33.4,37.83l-2.61,19.3     c-1.26,9.27,1.56,18.62,7.71,25.67c6.16,7.04,15.05,11.08,24.41,11.08c9.35,0,18.25-4.04,24.41-11.08     c6.15-7.05,8.96-16.4,7.71-25.67l-2.61-19.3C309.272,90.25,323.872,74.17,323.872,54.75z M268.712,122.991     c-1.921,2.197-4.705,3.639-7.75,3.639c-6.145,0-11.143-5.748-10.32-11.81l2.97-21.94h14.7c0,0,2.965,21.904,2.97,21.94     C271.691,117.84,270.633,120.793,268.712,122.991z M285.732,70.88h-49.54c-8.9,0-16.14-7.24-16.14-16.13     c0-18.06,18.35-32.75,40.91-32.75s40.91,14.69,40.91,32.75C301.872,63.64,294.632,70.88,285.732,70.88z"/>
		</g>
	</g>
</g>















</svg>
