<svg xmlns="http://www.w3.org/2000/svg" version="1.1" xmlns:xlink="http://www.w3.org/1999/xlink" width="512" height="512" x="0" y="0" viewBox="0 0 512 512" style="enable-background:new 0 0 512 512" xml:space="preserve" class=""><g><switch><g><path d="M437 75C388.7 26.6 324.4 0 256 0c-49.2 0-97 14-138.2 40.5-40.1 25.8-72.2 62-92.8 104.9-6 12.4-.7 27.4 11.7 33.4s27.4.7 33.4-11.7c16.6-34.5 42.4-63.7 74.7-84.5C178 61.3 216.4 50 256 50c113.6 0 206 92.4 206 206s-92.4 206-206 206c-39.6 0-78-11.3-111.2-32.5-32.3-20.7-58.1-50-74.7-84.5-6-12.4-20.9-17.7-33.4-11.7-12.4 6-17.7 20.9-11.7 33.4 20.6 42.9 52.6 79.2 92.8 104.9C159 498 206.8 512 256 512c68.4 0 132.7-26.6 181-75 48.4-48.4 75-112.6 75-181s-26.6-132.7-75-181z" fill="#3f00a9" opacity="1" data-original="#000000" class=""></path><path d="M139.4 256c0 13.8 11.2 25 25 25h142.2l-36.9 36.9c-9.8 9.8-9.8 25.6 0 35.4 4.9 4.9 11.3 7.3 17.7 7.3s12.8-2.4 17.7-7.3l62.9-62.9c9.2-9.2 14.2-21.4 14.2-34.3s-5.1-25.2-14.2-34.3l-62.9-62.9c-9.8-9.8-25.6-9.8-35.4 0s-9.8 25.6 0 35.4l36.9 36.9H164.4c-13.8-.2-25 11-25 24.8z" fill="#3f00a9" opacity="1" data-original="#000000" class=""></path></g></switch></g></svg>